<svg xmlns="http://www.w3.org/2000/svg" width="640" height="512"><rect id="backgroundrect" width="100%" height="100%" x="0" y="0" fill="none" stroke="none"/><g class="currentLayer" style=""><title>Layer 1</title><path d="M284.5277640258502,236.3 h-53.751996098969826 v-59.4 h53.751996098969826 v59.4 zm0,-204.3 h-53.751996098969826 v60.7 h53.751996098969826 V32 zm63.59162019575553,144.8 H294.36738812263593 v59.4 h53.751996098969826 v-59.4 zm-127.10192118409965,-72.1 h-53.751996098969826 v60.1 h53.751996098969826 v-60.1 zm63.510300988344056,0 h-53.751996098969826 v60.1 h53.751996098969826 v-60.1 zm225.09156611489942,100 c-11.709965867249101,-9.7 -38.7079427278512,-13.2 -59.44434061777147,-8.4 c-2.6835338445779184,-24 -13.580307637712497,-44.9 -33.42219424610681,-63.7 l-11.384689037603293,-9.3 l-7.562686289265046,14 c-14.962734163707184,27.8 -19.028694534279786,73.6 -3.0088106742237284,103.8 c-7.074771044796331,4.7 -20.980355512154638,11.1 -39.358496387142814,10.7 H1.9435182710542265 c-7.074771044796331,50.8 4.7165140298642205,116.8 35.78045126103892,162.1 c30.16942594964873,43.9 75.3829052704161,66.2 134.50196905854176,66.2 c127.99643246562562,0 222.73330909996727,-72.5 267.05227713920857,-204.2 c17.402310386050743,0.4 54.97178421014161,0.1 74.24443636665575,-45.2 c1.2197881111717817,-2.5 5.367067689155837,-13.2 6.912132629973427,-17.1 l-10.81545458572313,-8.9 zm-415.62246907993165,-27.9 h-53.67067689155838 v59.4 h53.751996098969826 v-59.4 zm63.510300988344056,0 h-53.751996098969826 v59.4 h53.751996098969826 v-59.4 zm63.510300988344056,0 h-53.751996098969826 v59.4 h53.751996098969826 v-59.4 zm-63.510300988344056,-72.1 h-53.751996098969826 v60.1 h53.751996098969826 v-60.1 z" id="svg_1" class="selected" fill="#ffffff" fill-opacity="1"/></g></svg>