<svg xmlns="http://www.w3.org/2000/svg" height="30" width="27" fill="#e10098" style=""><rect id="backgroundrect" width="100%" height="100%" x="0" y="0" fill="none" stroke="none" class="" style=""/><g class="currentLayer" style=""><title>Layer 1</title><path d="M2.429467635154724,22.863500587640797 l-1.1,-0.6360000000000001 L13.597467635154723,0.9795005876407958 l1.1,0.6360000000000001 z" id="svg_1" class="" fill="#ffffff" fill-opacity="1"/><path d="M1.0764676351547244,20.529500587640797 h24.538 v1.272 H1.0764676351547244 z" id="svg_2" class="" fill="#ffffff" fill-opacity="1"/><path d="M13.835467635154725,28.331500587640797 L1.5624676351547242,21.245500587640795 l0.6360000000000001,-1.1 l12.273,7.086 zm10.662,-18.47 L12.223467635154725,2.776500587640796 l0.6360000000000001,-1.1 l12.273,7.086 z" id="svg_3" class="" fill="#ffffff" fill-opacity="1"/><path d="M2.2014676351547244,9.857500587640796 l-0.6360000000000001,-1.1 L13.849467635154724,1.669500587640796 l0.6360000000000001,1.1 z" id="svg_4" class="" fill="#ffffff" fill-opacity="1"/><path d="M24.271467635154725,22.863500587640797 l-12.27,-21.25 l1.1,-0.6360000000000001 l12.27,21.25 zM2.0494676351547243,7.913500587640796 h1.272 v14.172 H2.0494676351547243 zm21.328,0 H24.649467635154725 v14.172 h-1.272 z" id="svg_5" class="" fill="#ffffff" fill-opacity="1"/><path d="M13.619467635154724,27.792500587640795 l-0.555,-0.9620000000000001 l10.675,-6.163 l0.555,0.9620000000000001 z" id="svg_6" class="" fill="#ffffff" fill-opacity="1"/><path d="M26.334467635154724,22.499500587640796 a2.68,2.68 0 0 1 -3.654,0.981 a2.68,2.68 0 0 1 -0.981,-3.654 a2.68,2.68 0 0 1 3.654,-0.981 c1.287,0.7430000000000001 1.7240000000000002,2.375 0.98,3.654 M4.9914676351547245,10.173500587640795 a2.68,2.68 0 0 1 -3.654,0.981 A2.68,2.68 0 0 1 0.35646763515472424,7.499500587640796 a2.68,2.68 0 0 1 3.654,-0.981 a2.68,2.68 0 0 1 0.981,3.654 M0.36446763515472425,22.499500587640796 a2.68,2.68 0 0 1 0.981,-3.654 a2.68,2.68 0 0 1 3.654,0.981 a2.68,2.68 0 0 1 -0.981,3.654 c-1.287,0.7350000000000001 -2.92,0.30000000000000004 -3.654,-0.98 m21.343,-12.326 a2.68,2.68 0 0 1 0.981,-3.654 a2.68,2.68 0 0 1 3.654,0.981 a2.68,2.68 0 0 1 -0.981,3.654 a2.68,2.68 0 0 1 -3.654,-0.981 M13.349467635154724,29.999500587640796 a2.6740000000000004,2.6740000000000004 0 1 1 2.6740000000000004,-2.673 A2.68,2.68 0 0 1 13.349467635154724,29.999500587640796 m0,-24.652 a2.67,2.67 0 0 1 -2.6740000000000004,-2.6740000000000004 a2.67,2.67 0 1 1 5.347,0 A2.67,2.67 0 0 1 13.349467635154724,5.346500587640796 " id="svg_7" class="" fill="#ffffff" fill-opacity="1"/></g></svg>